<svg id="logo" xmlns="http://www.w3.org/2000/svg" width="196.699" height="36" viewBox="0 0 196.699 36">
  <path id="G" d="M18.687,15.847v2.875q0,.759-.34.941a13.642,13.642,0,0,1-6.291,1.176,13.663,13.663,0,0,1-8.429-2.43A9.177,9.177,0,0,1,0,10.594,10.26,10.26,0,0,1,1.385,5.288,8.952,8.952,0,0,1,4.547,2.048a13.429,13.429,0,0,1,7.031-1.7A24.134,24.134,0,0,1,16.2.767a17,17,0,0,0,2.064.287c.244.018.366.122.366.314a5.765,5.765,0,0,0-.091,1.019q-.092,1.255-.092,3.267,0,.549-.287.549c-.14,0-.227-.113-.262-.34a3.825,3.825,0,0,0-.888-2.17,5.938,5.938,0,0,0-2.091-1.333,9.787,9.787,0,0,0-3.738-.705A7.816,7.816,0,0,0,6.011,3.272q-2.4,2.012-2.4,6.394a10.092,10.092,0,0,0,2.509,7.049A8.478,8.478,0,0,0,12.7,19.481q2.169,0,2.535-.55a1.124,1.124,0,0,0,.183-.7V15.782c0-1.494-.009-2.522-.026-3.075a1.363,1.363,0,0,0-1.124-1.486,5.187,5.187,0,0,0-1.02-.078q-.393,0-.392-.209,0-.261.549-.262.759,0,2.117.039t1.673.039q.391,0,1.5-.039t1.555-.039q.522,0,.522.262c0,.139-.1.209-.3.209a4.612,4.612,0,0,0-.754.078q-.954.184-1.006,1.49-.026.836-.026,3.136" transform="translate(0 -0.044)" fill="#fff"/>
  <path id="E" d="M28.41,14.716V10.879q0-3.9-.044-4.621a1.189,1.189,0,0,0-.937-1.243,4.323,4.323,0,0,0-.85-.066c-.248,0-.37-.065-.37-.2s.159-.2.48-.2q.654,0,1.776.032t1.363.033q5.167,0,5.45-.022a6.243,6.243,0,0,0,.937-.131c.247-.058.363-.087.348-.087.087,0,.131.065.131.2,0,.015-.022.145-.066.393-.044.29-.076.632-.1,1.024s-.062.872-.12,1.439c-.029.159-.1.24-.221.24-.1,0-.165-.081-.186-.24s-.04-.312-.054-.458a1.6,1.6,0,0,0-.088-.392C35.688,6.164,35.2,5.9,34.4,5.8q-.747-.087-3.11-.088-.152,0-.152.218v5.515c0,.16.051.24.152.24q3,0,3.5-.044a3.72,3.72,0,0,0,.571-.066.938.938,0,0,0,.48-.261c.178-.189.294-.284.352-.284.1,0,.153.058.153.174q0,.022-.066.436-.066.5-.109,1.156-.088,1.242-.088,1.46c0,.277-.066.415-.2.415s-.2-.077-.2-.229a5.29,5.29,0,0,0-.088-.752c-.116-.494-.523-.778-1.224-.851q-.616-.064-3.11-.065c-.088,0-.13.072-.13.218v5.1a1.868,1.868,0,0,0,.515,1.493,4.177,4.177,0,0,0,2.111.339,5.517,5.517,0,0,0,2.057-.262,1.977,1.977,0,0,0,.985-1.613c.044-.219.123-.327.24-.327s.174.13.174.392a9.65,9.65,0,0,1-.283,2.42.689.689,0,0,1-.305.48,2.655,2.655,0,0,1-.872.088q-1.9,0-3.772-.066t-2.267-.066q-.2,0-1.232.032t-1.515.033q-.436,0-.436-.218,0-.152.48-.2.327-.045.654-.066.5-.109.633-1.2.109-.851.109-4.644" transform="translate(-3.272 -0.547)" fill="#fff"/>
  <path id="S" d="M46.221,21.325a7.889,7.889,0,0,1-3.183-.567.717.717,0,0,1-.414-.741q0-1.178.109-2.856.043-.567.262-.567c.145,0,.218.124.218.371a3.994,3.994,0,0,0,.2,1.111,2.917,2.917,0,0,0,3.117,2.2,3.02,3.02,0,0,0,2.2-.807,2.3,2.3,0,0,0,.719-1.678q0-1.81-2.136-3.488l-1-.785q-3.227-2.528-3.226-5.166a3.677,3.677,0,0,1,1.4-2.965,5.519,5.519,0,0,1,3.64-1.155,11.9,11.9,0,0,1,2.9.371q.306.087.305.262c0-.03-.014.228-.044.774s-.043,1.159-.043,1.842q0,.654-.241.654-.218,0-.218-.392a2.325,2.325,0,0,0-.566-1.439,2.866,2.866,0,0,0-2.376-1.069,2.752,2.752,0,0,0-1.9.621,2.073,2.073,0,0,0-.7,1.624,2.457,2.457,0,0,0,.491,1.449,8.847,8.847,0,0,0,1.82,1.689l.61.459a11.564,11.564,0,0,1,2.769,2.736,5.1,5.1,0,0,1,.806,2.822,4.26,4.26,0,0,1-2.049,3.793,6.232,6.232,0,0,1-3.466.894" transform="translate(-4.209 -0.529)" fill="#fff"/>
  <path id="T" d="M61.421,14.7V5.76l-3.248.087q-1.722.045-2.114.633a2.447,2.447,0,0,0-.371.763c-.044.174-.123.262-.24.262s-.2-.116-.2-.349a14.214,14.214,0,0,1,.458-2.506q.109-.415.262-.415a1.43,1.43,0,0,1,.348.12,1.808,1.808,0,0,0,.589.142q1.178.109,2.18.109h8.633a10.324,10.324,0,0,0,1.5-.1,5.3,5.3,0,0,0,.589-.1c.116,0,.174.152.174.453,0,.146-.01.549-.032,1.214s-.04,1.1-.054,1.322-.073.324-.175.324c-.13,0-.21-.146-.24-.436l-.022-.241q-.109-1.155-2.572-1.22L64.145,5.76V14.7q0,3.707.109,4.665.131,1.069.851,1.177a8.175,8.175,0,0,0,1.111.088c.233,0,.348.058.348.174,0,.145-.137.218-.414.218q-.828,0-2.027-.033t-1.395-.032q-.2,0-1.232.032t-1.515.033q-.436,0-.436-.218,0-.152.48-.2.327-.045.654-.066.5-.109.633-1.2.109-.96.109-4.644" transform="translate(-5.411 -0.529)" fill="#fff"/>
  <path id="Ã" d="M81.545,2.332a3.885,3.885,0,0,1-1.831-.545,3.633,3.633,0,0,0-1.526-.544,2.093,2.093,0,0,0-1.483.784.527.527,0,0,1-.348.219.135.135,0,0,1-.152-.153.836.836,0,0,1,.174-.414Q77.446,0,78.645,0A3.9,3.9,0,0,1,80.39.61a3.229,3.229,0,0,0,1.569.48,1.594,1.594,0,0,0,1.33-.654q.218-.284.349-.284a.154.154,0,0,1,.174.174A1.011,1.011,0,0,1,83.681.7a3.4,3.4,0,0,1-.763.959,2.015,2.015,0,0,1-1.373.676M77.272,13.711h4.011c.1,0,.138-.043.109-.13L79.43,8.2c-.029-.131-.066-.2-.109-.2q-.088,0-.131.2l-2.006,5.362C77.156,13.66,77.185,13.711,77.272,13.711ZM81.7,14.8H76.837c-.088,0-.152.058-.2.174l-1.177,3.117a4.191,4.191,0,0,0-.327,1.329q0,.676.872.676h.327c.218,0,.327.058.327.174q0,.218-.371.218c-.232,0-.621-.011-1.166-.033s-.927-.032-1.145-.032l-.949.032q-.948.033-1.623.033-.415,0-.415-.218c0-.116.088-.174.262-.174a5.135,5.135,0,0,0,.676-.044,1.7,1.7,0,0,0,1.134-.61,5.128,5.128,0,0,0,.719-1.352L79.256,4.4q.349-.872.61-.872.24,0,.545.7,2.006,5.058,5.406,13.407.916,2.158,1.918,2.376a4.229,4.229,0,0,0,.916.088c.188,0,.283.058.283.174,0,.087-.073.145-.218.174a4.7,4.7,0,0,1-.784.044q-2.7,0-4.12-.044-.655-.022-.655-.174c0-.116.1-.182.305-.2q.349-.109.2-.5l-1.743-4.622A.224.224,0,0,0,81.7,14.8Z" transform="translate(-6.917)" fill="#fff"/>
  <path id="O" d="M101.07,20.234a4.421,4.421,0,0,0,3.1-1.155q1.961-1.766,1.962-5.885a8.759,8.759,0,0,0-1.853-5.8,5.681,5.681,0,0,0-4.534-2.114,4.892,4.892,0,0,0-3.619,1.373Q94.377,8.4,94.378,12.1a8.952,8.952,0,0,0,1.788,5.755,5.912,5.912,0,0,0,4.9,2.376m-.915,1.09A8.318,8.318,0,0,1,91.37,12.78a8.392,8.392,0,0,1,2.049-5.668,8.655,8.655,0,0,1,6.954-2.878,9.089,9.089,0,0,1,6.431,2.2,7.718,7.718,0,0,1,2.376,5.951,8.622,8.622,0,0,1-9.025,8.938Z" transform="translate(-8.904 -0.529)" fill="#fff"/>
  <path id="_" data-name="&amp;" d="M128.809,19.193a4.759,4.759,0,0,0,2.245-.6,4.4,4.4,0,0,0,1.33-.967,54.828,54.828,0,0,1-3.924-4.495,37.193,37.193,0,0,1-2.332-3.267,5.029,5.029,0,0,0-1.5,3.972,5.906,5.906,0,0,0,1.221,3.868,3.707,3.707,0,0,0,2.965,1.49m-6.8-4.129a7.009,7.009,0,0,1,1.286-3.973,7.306,7.306,0,0,1,2.268-2.221,6.97,6.97,0,0,1-1.112-3.712A4.55,4.55,0,0,1,125.67,1.97,5.208,5.208,0,0,1,129.746.349,6.172,6.172,0,0,1,132.384.9a.689.689,0,0,1,.37.68,24.267,24.267,0,0,1-.24,3.346c-.044.3-.13.444-.262.444q-.152,0-.152-.5a3.77,3.77,0,0,0-.632-2.2,2.773,2.773,0,0,0-2.42-1.176,2.068,2.068,0,0,0-1.5.654,3.161,3.161,0,0,0-.828,2.326,6.751,6.751,0,0,0,1.155,3.476q.282.47,2.463,3.4.916,1.229,3.837,4.364a7.7,7.7,0,0,0,1.047-4.025,1.5,1.5,0,0,0-.545-1.307,1.483,1.483,0,0,0-.937-.288c-.174,0-.262-.069-.262-.209,0-.173.116-.261.349-.261a20.952,20.952,0,0,1,2.616.183c.494.069.741.244.741.522a9.654,9.654,0,0,1-.589,3.175,11.789,11.789,0,0,1-1.547,3.019,24.541,24.541,0,0,0,3.03,2.562,5.132,5.132,0,0,0,1.243.64,3.59,3.59,0,0,0,1.068.275c.218,0,.327.078.327.235s-.218.235-.654.235h-1.679a8.167,8.167,0,0,1-2.812-.366,8.285,8.285,0,0,1-2.333-1.646,6.782,6.782,0,0,1-5.166,2.378,5.643,5.643,0,0,1-6.06-5.775Z" transform="translate(-11.872 -0.044)" fill="#fff"/>
  <path id="M" d="M150.979,18.815,153.138,4.6c.058-.378.182-.567.37-.567s.371.225.589.676l5.951,12.3,5.929-12.447c.16-.349.319-.523.48-.523q.284,0,.392.676l1.984,13.472a6.184,6.184,0,0,0,.371,1.569,1.11,1.11,0,0,0,.7.632,4.671,4.671,0,0,0,1.351.219c.233,0,.348.051.348.152,0,.16-.188.24-.566.24q-2.769,0-4.425-.131-.633-.043-.633-.24c0-.1.076-.181.229-.24s.193-.37.12-.937l-1.308-9.591h-.088l-4.752,9.915c-.392.817-.661,1.224-.806,1.224s-.385-.363-.763-1.094q-2.071-3.95-2.507-4.955-.74-1.619-2.267-4.85h-.088l-1.133,8.675a7.886,7.886,0,0,0-.065,1.025q0,.545.654.7a4.133,4.133,0,0,0,.915.109c.218,0,.326.051.326.152q0,.24-.522.24t-1.341-.033c-.545-.021-.861-.032-.949-.032-.116,0-.439.011-.97.032s-.927.033-1.188.033-.392-.08-.392-.24q0-.152.349-.152a3.112,3.112,0,0,0,.654-.066q.654-.131.894-1.722" transform="translate(-14.414 -0.504)" fill="#fff"/>
  <path id="A" d="M179.4,14.215h4.011c.1,0,.138-.043.109-.13L181.556,8.7c-.03-.131-.066-.2-.109-.2s-.1.066-.13.2l-2.006,5.362c-.029.1,0,.152.088.152m4.425,1.09h-4.861c-.087,0-.152.058-.2.174L177.589,18.6a4.185,4.185,0,0,0-.326,1.329q0,.676.872.676h.327c.218,0,.326.058.326.174q0,.218-.37.218-.349,0-1.167-.033t-1.144-.032l-.949.032q-.949.033-1.624.033-.413,0-.414-.218c0-.116.088-.174.262-.174a5.135,5.135,0,0,0,.676-.044,1.693,1.693,0,0,0,1.133-.61,5.078,5.078,0,0,0,.719-1.352l5.471-13.69q.349-.872.611-.872.239,0,.544.7,2.006,5.058,5.407,13.407.915,2.158,1.918,2.376a4.226,4.226,0,0,0,.915.088c.189,0,.284.058.284.174,0,.087-.073.145-.218.174a4.7,4.7,0,0,1-.785.044q-2.7,0-4.12-.044-.654-.022-.654-.174c0-.116.1-.182.305-.2q.348-.109.2-.5l-1.744-4.622A.223.223,0,0,0,183.823,15.305Z" transform="translate(-16.183 -0.504)" fill="#fff"/>
  <path id="I" d="M195.936,14.741V10.9q0-3.9-.043-4.621-.066-1.046-.741-1.221a3.3,3.3,0,0,0-.753-.088c-.254,0-.382-.073-.382-.218,0-.116.175-.174.523-.174q.436,0,1.494.032t1.34.033q.24,0,1.221-.033t1.439-.032q.458,0,.458.174c0,.145-.105.218-.312.218a3.955,3.955,0,0,0-.679.066q-.73.131-.8,1.243-.045.719-.044,4.621v3.837q0,3.9.088,4.774c.058.64.345,1,.865,1.069a8.022,8.022,0,0,0,1.1.088c.229,0,.346.058.346.174q0,.218-.415.218-.828,0-2.016-.033T197.245,21q-.2,0-1.232.032t-1.515.033q-.436,0-.436-.218,0-.152.48-.2.327-.045.654-.066.524-.109.633-1.079t.109-4.763" transform="translate(-18.792 -0.572)" fill="#fff"/>
  <path id="S-2" data-name="S" d="M210.384,20.924a9.475,9.475,0,0,1-3.816-.679.861.861,0,0,1-.5-.889q0-1.411.13-3.424c.035-.453.139-.68.314-.68s.261.148.261.445a4.783,4.783,0,0,0,.235,1.333,3.5,3.5,0,0,0,3.738,2.639,3.621,3.621,0,0,0,2.639-.967,2.755,2.755,0,0,0,.862-2.012q0-2.169-2.561-4.181l-1.2-.942q-3.869-3.031-3.868-6.193a4.406,4.406,0,0,1,1.673-3.555A6.617,6.617,0,0,1,212.658.433a14.312,14.312,0,0,1,3.475.445c.244.07.367.174.367.314q0-.053-.053.928T216.4,4.327q0,.784-.287.784c-.175,0-.262-.157-.262-.471a2.79,2.79,0,0,0-.679-1.725,3.438,3.438,0,0,0-2.85-1.28,3.3,3.3,0,0,0-2.274.745,2.485,2.485,0,0,0-.837,1.947,2.942,2.942,0,0,0,.589,1.738,10.635,10.635,0,0,0,2.182,2.026l.732.549a13.869,13.869,0,0,1,3.319,3.28A6.118,6.118,0,0,1,217,15.3a5.107,5.107,0,0,1-2.457,4.547,7.47,7.47,0,0,1-4.156,1.072" transform="translate(-20.297 -0.054)" fill="#fff"/>
  <path id="Slogan" d="M176.909,37.091a.557.557,0,0,0-.116-.368.847.847,0,0,0-.316-.231,2.278,2.278,0,0,0-.446-.146c-.165-.038-.34-.074-.521-.109-.24-.053-.473-.112-.691-.183a1.986,1.986,0,0,1-.579-.291,1.369,1.369,0,0,1-.4-.473,1.551,1.551,0,0,1-.149-.718,1.849,1.849,0,0,1,.173-.828,1.646,1.646,0,0,1,.467-.582,2.055,2.055,0,0,1,.7-.345,3.235,3.235,0,0,1,.895-.115,5.39,5.39,0,0,1,1,.094,4.52,4.52,0,0,1,.864.242v.941a5.375,5.375,0,0,0-.927-.266,4.564,4.564,0,0,0-.835-.083,1.594,1.594,0,0,0-.866.2.738.738,0,0,0-.2.97.782.782,0,0,0,.27.243,1.736,1.736,0,0,0,.395.156c.148.039.3.074.471.107q.395.081.752.187a2.19,2.19,0,0,1,.637.292,1.369,1.369,0,0,1,.439.49,1.638,1.638,0,0,1,.162.775,1.79,1.79,0,0,1-.186.838,1.593,1.593,0,0,1-.528.585,2.439,2.439,0,0,1-.828.342,4.757,4.757,0,0,1-1.069.112,5.191,5.191,0,0,1-1-.1,2.891,2.891,0,0,1-.815-.271v-.927a4.7,4.7,0,0,0,.9.28,4.548,4.548,0,0,0,.9.088,3.221,3.221,0,0,0,.53-.043,1.622,1.622,0,0,0,.466-.145.886.886,0,0,0,.333-.282.734.734,0,0,0,.125-.438m-7.492-1.277a3.735,3.735,0,0,1-.2,1.258,2.748,2.748,0,0,1-.592.984,2.661,2.661,0,0,1-.953.642,3.739,3.739,0,0,1-2.569,0,2.665,2.665,0,0,1-.954-.642,2.757,2.757,0,0,1-.59-.984,3.992,3.992,0,0,1,0-2.515,2.746,2.746,0,0,1,.59-.983,2.642,2.642,0,0,1,.954-.642,3.726,3.726,0,0,1,2.569,0,2.639,2.639,0,0,1,.953.642,2.737,2.737,0,0,1,.592.983A3.743,3.743,0,0,1,169.418,35.814Zm-1.18,0a2.963,2.963,0,0,0-.14-.957,1.9,1.9,0,0,0-.386-.683,1.549,1.549,0,0,0-.583-.409,2.111,2.111,0,0,0-1.485,0,1.549,1.549,0,0,0-.583.409,1.912,1.912,0,0,0-.386.683,3.35,3.35,0,0,0,0,1.915,1.907,1.907,0,0,0,.386.683,1.587,1.587,0,0,0,.583.408,2.086,2.086,0,0,0,1.485,0,1.587,1.587,0,0,0,.583-.408,1.893,1.893,0,0,0,.386-.683A2.967,2.967,0,0,0,168.238,35.814Zm-10.465,3V32.823h1.142v5.992Zm-5.764-5.185a2.4,2.4,0,0,0-.858.149,1.851,1.851,0,0,0-.672.43,1.932,1.932,0,0,0-.439.7,2.635,2.635,0,0,0-.159.948,2.753,2.753,0,0,0,.144.932,1.7,1.7,0,0,0,1.071,1.076,2.663,2.663,0,0,0,.88.137,4.936,4.936,0,0,0,.72-.053,4.318,4.318,0,0,0,.689-.15v.937a5.45,5.45,0,0,1-.7.141,5.815,5.815,0,0,1-.781.051,4.058,4.058,0,0,1-1.389-.217,2.761,2.761,0,0,1-1-.615,2.54,2.54,0,0,1-.605-.95,3.53,3.53,0,0,1-.2-1.223,3.655,3.655,0,0,1,.217-1.272,2.913,2.913,0,0,1,.625-1.017,2.841,2.841,0,0,1,1.018-.677,3.757,3.757,0,0,1,1.383-.251,5.362,5.362,0,0,1,.749.051,3.773,3.773,0,0,1,.636.145v.924a4.7,4.7,0,0,0-.693-.151A4.651,4.651,0,0,0,152.008,33.63ZM142.8,31.391l-.884,1.11h-.872l.641-1.11Zm1.736,4.423a3.758,3.758,0,0,1-.2,1.258,2.774,2.774,0,0,1-.592.984,2.665,2.665,0,0,1-.954.642,3.739,3.739,0,0,1-2.569,0,2.673,2.673,0,0,1-.954-.642,2.77,2.77,0,0,1-.59-.984,4.009,4.009,0,0,1,0-2.515,2.759,2.759,0,0,1,.59-.983,2.65,2.65,0,0,1,.954-.642,3.726,3.726,0,0,1,2.569,0,2.642,2.642,0,0,1,.954.642,2.763,2.763,0,0,1,.592.983A3.765,3.765,0,0,1,144.539,35.814Zm-1.18,0a2.965,2.965,0,0,0-.139-.957,1.925,1.925,0,0,0-.386-.683,1.545,1.545,0,0,0-.584-.409,2.111,2.111,0,0,0-1.485,0,1.563,1.563,0,0,0-.583.409,1.91,1.91,0,0,0-.385.683,3.35,3.35,0,0,0,0,1.915,1.906,1.906,0,0,0,.385.683,1.6,1.6,0,0,0,.583.408,2.086,2.086,0,0,0,1.485,0,1.583,1.583,0,0,0,.584-.408,1.921,1.921,0,0,0,.386-.683A2.969,2.969,0,0,0,143.359,35.814Zm-10.375.706H131.59V35.6h2.535v3.025c-.093.033-.211.067-.355.1s-.3.067-.484.1-.362.052-.551.069-.376.027-.561.027a4.432,4.432,0,0,1-1.461-.217,2.85,2.85,0,0,1-1.04-.612,2.507,2.507,0,0,1-.623-.939,3.352,3.352,0,0,1-.207-1.2,3.565,3.565,0,0,1,.11-.89,3.006,3.006,0,0,1,.838-1.436,3.059,3.059,0,0,1,.691-.5,3.584,3.584,0,0,1,.85-.315,4.261,4.261,0,0,1,.991-.11,5.951,5.951,0,0,1,.893.065,4.127,4.127,0,0,1,.691.158v.925a5.333,5.333,0,0,0-.731-.164,4.811,4.811,0,0,0-.745-.057,3.032,3.032,0,0,0-.948.145,2.191,2.191,0,0,0-.765.431,2.022,2.022,0,0,0-.509.7,2.354,2.354,0,0,0-.185.964,2.1,2.1,0,0,0,.573,1.6,2.286,2.286,0,0,0,1.616.531,3.983,3.983,0,0,0,.4-.02,3.573,3.573,0,0,0,.367-.052ZM121.625,37.9h3.058v.917h-4.2V32.823h4.032v.917h-2.889v1.551h2.482v.918h-2.482Zm-8.058-2.29q.668.92,1.088,1.63h.027q-.056-1.167-.056-1.7V32.823h1.142v5.992h-1.194l-2.029-2.759q-.535-.715-1.106-1.661h-.027q.054,1.1.055,1.706v2.715h-1.142V32.823h1.194Zm-12.7,2.29h3.057v.917h-4.2V32.823h4.032v.917h-2.889v1.551h2.482v.918h-2.482Zm-9.322,0a3.74,3.74,0,0,0,1.559-.265,1.655,1.655,0,0,0,.752-.69,2.341,2.341,0,0,0,.255-1.157,2.442,2.442,0,0,0-.084-.662,1.766,1.766,0,0,0-.24-.526,1.619,1.619,0,0,0-.383-.4,2.091,2.091,0,0,0-.509-.274,2.8,2.8,0,0,0-.588-.144,5.549,5.549,0,0,0-.73-.045h-.5V37.9Zm-1.612.917V32.823h1.645q.218,0,.444.013c.151.01.3.022.439.04s.279.039.413.066a2.752,2.752,0,0,1,.368.092,3.231,3.231,0,0,1,.879.411,2.582,2.582,0,0,1,1.029,1.4,3.29,3.29,0,0,1,.132.947,3.546,3.546,0,0,1-.111.908,2.621,2.621,0,0,1-.34.772,2.433,2.433,0,0,1-.573.616,3.037,3.037,0,0,1-.82.438,4.484,4.484,0,0,1-.9.214,8.14,8.14,0,0,1-1.13.072Zm-9.069-4.552q-.333.936-.59,1.567l-.211.543h1.621l-.211-.542q-.257-.635-.59-1.569Zm1.186,3.028H79.7l-.6,1.524H77.883l2.468-5.992h1.04l2.468,5.992h-1.2Zm-9.425,1.524V32.823H73.77v5.992ZM66.864,33.63a2.392,2.392,0,0,0-.858.149,1.851,1.851,0,0,0-.672.43,1.932,1.932,0,0,0-.439.7,2.635,2.635,0,0,0-.159.948,2.731,2.731,0,0,0,.144.932,1.7,1.7,0,0,0,1.071,1.076,2.663,2.663,0,0,0,.88.137,4.936,4.936,0,0,0,.72-.053,4.318,4.318,0,0,0,.689-.15v.937a5.45,5.45,0,0,1-.7.141,5.815,5.815,0,0,1-.781.051,4.055,4.055,0,0,1-1.389-.217,2.762,2.762,0,0,1-1-.615,2.542,2.542,0,0,1-.606-.95,3.552,3.552,0,0,1-.2-1.223,3.655,3.655,0,0,1,.218-1.272,2.913,2.913,0,0,1,.625-1.017,2.833,2.833,0,0,1,1.018-.677A3.757,3.757,0,0,1,66.8,32.7a5.371,5.371,0,0,1,.749.051,3.814,3.814,0,0,1,.636.145v.924a4.6,4.6,0,0,0-1.32-.193Zm-9.948,1.978q.67.92,1.088,1.63h.027q-.054-1.167-.055-1.7V32.823h1.142v5.992H57.923l-2.028-2.759q-.535-.715-1.107-1.661H54.76q.056,1.1.055,1.706v2.715H53.674V32.823h1.194ZM46.606,31.391h.958l1,1.11h-.961l-.511-.565h-.019l-.515.565H45.6ZM46.178,37.9h3.058v.917h-4.2V32.823h4.032v.917h-2.89v1.551H48.66v.918H46.178ZM39.267,36.52H37.873V35.6h2.536v3.025c-.094.033-.211.067-.356.1s-.3.067-.484.1-.362.052-.55.069-.377.027-.562.027A4.432,4.432,0,0,1,37,38.708a2.858,2.858,0,0,1-1.04-.612,2.507,2.507,0,0,1-.623-.939,3.352,3.352,0,0,1-.207-1.2,3.565,3.565,0,0,1,.11-.89,3.006,3.006,0,0,1,.838-1.436,3.06,3.06,0,0,1,.691-.5,3.584,3.584,0,0,1,.85-.315,4.261,4.261,0,0,1,.991-.11,5.951,5.951,0,0,1,.893.065,4.106,4.106,0,0,1,.691.158v.925a5.333,5.333,0,0,0-.731-.164,4.8,4.8,0,0,0-.745-.057,3.037,3.037,0,0,0-.948.145,2.2,2.2,0,0,0-.765.431,2.022,2.022,0,0,0-.509.7,2.354,2.354,0,0,0-.185.964,2.094,2.094,0,0,0,.574,1.6A2.283,2.283,0,0,0,38.5,38a3.983,3.983,0,0,0,.4-.02,3.573,3.573,0,0,0,.367-.052ZM28.388,34.263q-.332.936-.59,1.567l-.211.543h1.621L29,35.832q-.257-.635-.59-1.569Zm1.186,3.028H27.221l-.6,1.524H25.405l2.467-5.992h1.041l2.467,5.992h-1.2Z" transform="translate(-3.172 -2.925)" fill="#fff"/>
</svg>
